<svg xmlns="http://www.w3.org/2000/svg" width="239" height="278.291" viewBox="0 0 239 278.291">
  <defs>
    <style>
      .cls-1 {
        fill: #fff;
      }

      .cls-2, .cls-3 {
        stroke: none;
      }

      .cls-3 {
        fill: #707070;
      }
    </style>

    <clipPath id="clippath" class="cls-1">
      <path fill="none" class="cls-2" d="M 174.2531433105469 277.7909240722656 C 169.6555786132812 277.7909240722656 162.2116088867188 277.5802307128906 152.8575744628906 276.5764770507812 C 143.6266021728516 275.5859375 134.4692535400391 274.0367126464844 125.6398239135742 271.9718933105469 C 115.1537170410156 269.5196228027344 105.187858581543 266.3462829589844 96.01899719238281 262.5400695800781 C 85.46078491210938 258.1570434570312 75.83467864990234 252.8787536621094 67.40803527832031 246.8517608642578 C 56.03610610961914 238.7181549072266 47.25410842895508 231.0406188964844 39.7706413269043 222.6900787353516 C 31.3868579864502 213.3349761962891 24.55042839050293 202.9654693603516 18.87075042724609 190.989013671875 C 15.62060737609863 184.1357269287109 12.65124988555908 176.3865051269531 10.04514312744141 167.9565734863281 C 7.890392780303955 160.9867553710938 5.987428665161133 153.5730133056641 4.389071464538574 145.9212188720703 C 1.421714305877686 131.715576171875 0.5 121.5835037231445 0.5 119.5000076293945 C 0.5 111.4256820678711 1.313428521156311 103.356575012207 2.917678594589233 95.51683044433594 C 4.481071472167969 87.87657928466797 6.813928604125977 80.36136627197266 9.85139274597168 73.17996978759766 C 12.83378601074219 66.12886047363281 16.52517890930176 59.32800674438477 20.82303619384766 52.96632766723633 C 25.08014297485352 46.66497039794922 29.96917915344238 40.73939895629883 35.35428619384766 35.35429382324219 C 40.7393913269043 29.96918487548828 46.66496276855469 25.08014869689941 52.9663200378418 20.82304191589355 C 59.32799911499023 16.52518463134766 66.12886047363281 12.83379173278809 73.17996215820312 9.851399421691895 C 80.36135864257812 6.813934803009033 87.87657165527344 4.481077671051025 95.51682281494141 2.917685031890869 C 103.356575012207 1.313434958457947 111.4256820678711 0.5000064373016357 119.5 0.5000064373016357 C 127.5743179321289 0.5000064373016357 135.6434326171875 1.313434958457947 143.4831848144531 2.917685031890869 C 151.1234283447266 4.481077671051025 158.6386413574219 6.813934803009033 165.8200378417969 9.851399421691895 C 172.8711395263672 12.83379173278809 179.6719970703125 16.52518463134766 186.0336761474609 20.82304191589355 C 192.3350372314453 25.08014869689941 198.2606048583984 29.96918487548828 203.6457214355469 35.35429382324219 C 209.0308227539062 40.73939895629883 213.9198608398438 46.66497039794922 218.1769714355469 52.96632766723633 C 222.4748229980469 59.32800674438477 226.1662139892578 66.12886047363281 229.1486053466797 73.17996978759766 C 232.1860656738281 80.36136627197266 234.5189361572266 87.87657928466797 236.0823211669922 95.51683044433594 C 237.6865692138672 103.356575012207 238.5 111.4256820678711 238.5 119.5000076293945 C 238.5 133.1192169189453 236.2183990478516 146.4725036621094 231.7185363769531 159.1889038085938 C 227.36767578125 171.4842987060547 221.0409698486328 182.9297943115234 212.9141082763672 193.2074737548828 C 204.8624267578125 203.3901062011719 195.2676086425781 212.1470031738281 184.3962097167969 219.2348937988281 C 173.3386840820312 226.4441528320312 161.2536773681641 231.7305755615234 148.4768218994141 234.9473266601562 L 147.8904266357422 235.0949401855469 L 148.1455688476562 235.6431884765625 C 148.1881713867188 235.7347259521484 149.214599609375 237.9254302978516 151.4378509521484 241.4373321533203 C 153.4847564697266 244.670654296875 156.9723510742188 249.6690063476562 161.9632873535156 255.1194305419922 C 170.2071228027344 264.1222534179688 182.6173706054688 274.4443664550781 185.9134521484375 277.1440734863281 C 183.8279113769531 277.484375 179.9554290771484 277.7909240722656 174.2531433105469 277.7909240722656 Z"/>
      <path fill="none" class="cls-3" d="M 119.5 1 C 111.4592819213867 1 103.4238891601562 1.80999755859375 95.6170654296875 3.407501220703125 C 88.00914001464844 4.964324951171875 80.5257568359375 7.28729248046875 73.374755859375 10.3118896484375 C 66.35336303710938 13.28170776367188 59.58114624023438 16.95758056640625 53.2462158203125 21.23736572265625 C 46.97120666503906 25.47665405273438 41.07046508789062 30.34521484375 35.70785522460938 35.70787048339844 C 30.34521484375 41.07046508789062 25.47663879394531 46.97122192382812 21.23735046386719 53.2462158203125 C 16.95756530761719 59.58114624023438 13.28170776367188 66.35336303710938 10.3118896484375 73.374755859375 C 7.28729248046875 80.5257568359375 4.964324951171875 88.0091552734375 3.407501220703125 95.61708068847656 C 1.80999755859375 103.4239044189453 1 111.4592895507812 1 119.5 C 1 121.5696868896484 1.919174194335938 131.6519317626953 4.878494262695312 145.8190002441406 C 6.473678588867188 153.4555053710938 8.3726806640625 160.8539733886719 10.5228271484375 167.8088989257812 C 13.12188720703125 176.2161102294922 16.08253479003906 183.9429321289062 19.32246398925781 190.7747497558594 C 24.98129272460938 202.7071533203125 31.791748046875 213.0375671386719 40.14300537109375 222.3563995361328 C 47.60142517089844 230.6789703369141 56.35752868652344 238.3332977294922 67.69892883300781 246.445068359375 C 76.09475708007812 252.4500122070312 85.6875 257.7097778320312 96.21070861816406 262.0782470703125 C 105.3543853759766 265.8740844726562 115.2941055297852 269.0389709472656 125.7536773681641 271.4850463867188 C 134.5632476806641 273.5452270507812 143.7002563476562 275.0909729003906 152.910888671875 276.0793151855469 C 162.2429656982422 277.0807189941406 169.6677856445312 277.2909240722656 174.2531433105469 277.2909240722656 C 179.0133819580078 277.2909240722656 182.5127410888672 277.069580078125 184.7140655517578 276.8045654296875 C 180.4663238525391 273.2935791015625 169.2445678710938 263.8114318847656 161.5945434570312 255.4570465087891 C 156.578857421875 249.9795837402344 153.0731048583984 244.9551849365234 151.0153961181641 241.7047576904297 C 148.7751159667969 238.1659698486328 147.7354278564453 235.9468994140625 147.6922912597656 235.8541564941406 L 147.1819610595703 234.7577209472656 L 148.3547515869141 234.4624328613281 C 161.0778198242188 231.2592163085938 173.112060546875 225.9950408935547 184.1231384277344 218.8160705566406 C 194.9491119384766 211.7577819824219 204.5038604736328 203.0374755859375 212.5219268798828 192.8973693847656 C 220.6146087646484 182.6628723144531 226.9146728515625 171.2655792236328 231.2471771240234 159.0221099853516 C 235.7280426025391 146.3594055175781 238 133.062255859375 238 119.5 C 238 111.4592895507812 237.1900024414062 103.4239044189453 235.5924987792969 95.61708068847656 C 234.0356750488281 88.0091552734375 231.7127075195312 80.5257568359375 228.6881103515625 73.374755859375 C 225.7182922363281 66.35336303710938 222.0424346923828 59.58114624023438 217.7626342773438 53.2462158203125 C 213.5233612060547 46.97122192382812 208.6547546386719 41.07046508789062 203.2921447753906 35.70787048339844 C 197.9295349121094 30.34521484375 192.0287475585938 25.47665405273438 185.7537536621094 21.23736572265625 C 179.4188537597656 16.95758056640625 172.6466064453125 13.28170776367188 165.6252136230469 10.3118896484375 C 158.4742431640625 7.28729248046875 150.9908599853516 4.964324951171875 143.3829345703125 3.407501220703125 C 135.5761108398438 1.80999755859375 127.5407180786133 1 119.5 1 M 119.5 0 C 185.4980010986328 0 239 53.50196838378906 239 119.5 C 239 175.4003295898438 200.6172180175781 222.3358612060547 148.5988922119141 235.4321899414062 C 148.5988922119141 235.4321899414062 152.7183227539062 244.2828674316406 162.33203125 254.7817230224609 C 171.9457397460938 265.2805786132812 187.0537109375 277.4276123046875 187.0537109375 277.4276123046875 C 185.1603698730469 277.8959045410156 180.6374664306641 278.2909240722656 174.2531433105469 278.2909240722656 C 151.0558624267578 278.2909240722656 103.2232513427734 273.0826416015625 67.11717224121094 247.2584381103516 C 46.25967407226562 232.3404388427734 30.29035949707031 216.2357482910156 18.41893005371094 191.2032470703125 C 4.2593994140625 161.3462219238281 0 124.48193359375 0 119.5 C 0 53.50196838378906 53.50196838378906 0 119.5 0 Z"/>
    </clipPath>
  </defs>
</svg>
